<svg xmlns="http://www.w3.org/2000/svg" width="1240" height="640" viewBox="0 0 1240 640"><defs><radialGradient id="glow"><stop offset="0%" stop-color="#ff9d4d" stop-opacity="0.95"/><stop offset="100%" stop-color="#ff9d4d" stop-opacity="0"/></radialGradient></defs><rect width="1240" height="640" fill="#0a0d13"/><circle cx="507" cy="347" r="0.7" fill="#cdd6e4" opacity="0.36" stroke="none"/><circle cx="279" cy="19" r="0.7" fill="#cdd6e4" opacity="0.59" stroke="none"/><circle cx="124" cy="496" r="1.1" fill="#cdd6e4" opacity="0.67" stroke="none"/><circle cx="469" cy="259" r="1.1" fill="#cdd6e4" opacity="0.46" stroke="none"/><circle cx="420" cy="181" r="0.9" fill="#cdd6e4" opacity="0.32" stroke="none"/><circle cx="87" cy="61" r="1.1" fill="#cdd6e4" opacity="0.31" stroke="none"/><circle cx="775" cy="621" r="0.7" fill="#cdd6e4" opacity="0.46" stroke="none"/><circle cx="119" cy="305" r="0.9" fill="#cdd6e4" opacity="0.36" stroke="none"/><circle cx="320" cy="159" r="0.7" fill="#cdd6e4" opacity="0.28" stroke="none"/><circle cx="1191" cy="435" r="0.7" fill="#cdd6e4" opacity="0.69" stroke="none"/><circle cx="861" cy="540" r="1.1" fill="#cdd6e4" opacity="0.47" stroke="none"/><circle cx="584" cy="290" r="0.9" fill="#cdd6e4" opacity="0.39" stroke="none"/><circle cx="565" cy="508" r="1.1" fill="#cdd6e4" opacity="0.62" stroke="none"/><circle cx="1207" cy="472" r="1.1" fill="#cdd6e4" opacity="0.34" stroke="none"/><circle cx="277" cy="9" r="1.1" fill="#cdd6e4" opacity="0.85" stroke="none"/><circle cx="442" cy="127" r="0.7" fill="#cdd6e4" opacity="0.47" stroke="none"/><circle cx="139" cy="143" r="0.7" fill="#cdd6e4" opacity="0.85" stroke="none"/><circle cx="943" cy="433" r="1.5" fill="#cdd6e4" opacity="0.32" stroke="none"/><circle cx="223" cy="411" r="0.7" fill="#cdd6e4" opacity="0.62" stroke="none"/><circle cx="364" cy="413" r="1.1" fill="#cdd6e4" opacity="0.29" stroke="none"/><circle cx="540" cy="114" r="0.9" fill="#cdd6e4" opacity="0.76" stroke="none"/><circle cx="1214" cy="39" r="1.5" fill="#cdd6e4" opacity="0.83" stroke="none"/><circle cx="326" cy="42" r="1.1" fill="#cdd6e4" opacity="0.58" stroke="none"/><circle cx="605" cy="182" r="1.1" fill="#cdd6e4" opacity="0.49" stroke="none"/><circle cx="375" cy="565" r="1.5" fill="#cdd6e4" opacity="0.29" stroke="none"/><circle cx="313" cy="604" r="0.9" fill="#cdd6e4" opacity="0.29" stroke="none"/><circle cx="548" cy="417" r="1.5" fill="#cdd6e4" opacity="0.30" stroke="none"/><circle cx="1119" cy="493" r="1.1" fill="#cdd6e4" opacity="0.70" stroke="none"/><circle cx="624" cy="232" r="0.7" fill="#cdd6e4" opacity="0.67" stroke="none"/><circle cx="694" cy="47" r="1.1" fill="#cdd6e4" opacity="0.77" stroke="none"/><circle cx="858" cy="633" r="1.5" fill="#cdd6e4" opacity="0.40" stroke="none"/><circle cx="287" cy="382" r="0.7" fill="#cdd6e4" opacity="0.44" stroke="none"/><circle cx="404" cy="318" r="0.7" fill="#cdd6e4" opacity="0.30" stroke="none"/><circle cx="1131" cy="600" r="1.5" fill="#cdd6e4" opacity="0.48" stroke="none"/><circle cx="1194" cy="475" r="1.5" fill="#cdd6e4" opacity="0.38" stroke="none"/><circle cx="194" cy="94" r="0.7" fill="#cdd6e4" opacity="0.45" stroke="none"/><circle cx="17" cy="446" r="0.9" fill="#cdd6e4" opacity="0.35" stroke="none"/><circle cx="674" cy="49" r="0.7" fill="#cdd6e4" opacity="0.48" stroke="none"/><circle cx="622" cy="408" r="1.1" fill="#cdd6e4" opacity="0.49" stroke="none"/><circle cx="348" cy="520" r="0.9" fill="#cdd6e4" opacity="0.66" stroke="none"/><circle cx="854" cy="206" r="1.1" fill="#cdd6e4" opacity="0.84" stroke="none"/><circle cx="771" cy="185" r="0.7" fill="#cdd6e4" opacity="0.73" stroke="none"/><circle cx="145" cy="10" r="0.7" fill="#cdd6e4" opacity="0.35" stroke="none"/><circle cx="143" cy="567" r="0.9" fill="#cdd6e4" opacity="0.79" stroke="none"/><circle cx="866" cy="175" r="1.5" fill="#cdd6e4" opacity="0.75" stroke="none"/><circle cx="308" cy="176" r="0.9" fill="#cdd6e4" opacity="0.43" stroke="none"/><circle cx="959" cy="492" r="0.9" fill="#cdd6e4" opacity="0.65" stroke="none"/><circle cx="213" cy="114" r="1.5" fill="#cdd6e4" opacity="0.80" stroke="none"/><circle cx="605" cy="181" r="1.1" fill="#cdd6e4" opacity="0.66" stroke="none"/><circle cx="1089" cy="318" r="1.5" fill="#cdd6e4" opacity="0.54" stroke="none"/><circle cx="139" cy="442" r="0.9" fill="#cdd6e4" opacity="0.40" stroke="none"/><circle cx="279" cy="572" r="0.9" fill="#cdd6e4" opacity="0.46" stroke="none"/><circle cx="451" cy="272" r="1.1" fill="#cdd6e4" opacity="0.27" stroke="none"/><circle cx="339" cy="604" r="1.5" fill="#cdd6e4" opacity="0.31" stroke="none"/><circle cx="286" cy="344" r="0.7" fill="#cdd6e4" opacity="0.35" stroke="none"/><circle cx="791" cy="425" r="1.1" fill="#cdd6e4" opacity="0.65" stroke="none"/><circle cx="789" cy="592" r="1.5" fill="#cdd6e4" opacity="0.55" stroke="none"/><circle cx="7" cy="379" r="1.1" fill="#cdd6e4" opacity="0.35" stroke="none"/><circle cx="276" cy="362" r="0.7" fill="#cdd6e4" opacity="0.82" stroke="none"/><circle cx="210" cy="510" r="1.5" fill="#cdd6e4" opacity="0.28" stroke="none"/><circle cx="859" cy="198" r="0.7" fill="#cdd6e4" opacity="0.35" stroke="none"/><circle cx="321" cy="570" r="0.7" fill="#cdd6e4" opacity="0.46" stroke="none"/><circle cx="1194" cy="34" r="0.7" fill="#cdd6e4" opacity="0.58" stroke="none"/><circle cx="884" cy="217" r="1.5" fill="#cdd6e4" opacity="0.32" stroke="none"/><circle cx="669" cy="287" r="1.5" fill="#cdd6e4" opacity="0.27" stroke="none"/><circle cx="13" cy="10" r="0.7" fill="#cdd6e4" opacity="0.32" stroke="none"/><circle cx="988" cy="497" r="1.5" fill="#cdd6e4" opacity="0.59" stroke="none"/><circle cx="67" cy="309" r="0.9" fill="#cdd6e4" opacity="0.84" stroke="none"/><circle cx="661" cy="72" r="0.9" fill="#cdd6e4" opacity="0.37" stroke="none"/><circle cx="317" cy="176" r="0.9" fill="#cdd6e4" opacity="0.73" stroke="none"/><circle cx="1152" cy="220" r="1.5" fill="#cdd6e4" opacity="0.67" stroke="none"/><circle cx="33" cy="126" r="0.7" fill="#cdd6e4" opacity="0.67" stroke="none"/><circle cx="557" cy="88" r="1.5" fill="#cdd6e4" opacity="0.40" stroke="none"/><circle cx="239" cy="364" r="1.5" fill="#cdd6e4" opacity="0.45" stroke="none"/><circle cx="1052" cy="562" r="1.5" fill="#cdd6e4" opacity="0.45" stroke="none"/><circle cx="786" cy="344" r="1.1" fill="#cdd6e4" opacity="0.35" stroke="none"/><circle cx="52" cy="488" r="0.7" fill="#cdd6e4" opacity="0.83" stroke="none"/><circle cx="380" cy="468" r="1.1" fill="#cdd6e4" opacity="0.59" stroke="none"/><circle cx="659" cy="136" r="0.7" fill="#cdd6e4" opacity="0.62" stroke="none"/><circle cx="1224" cy="314" r="0.9" fill="#cdd6e4" opacity="0.57" stroke="none"/><circle cx="1089" cy="145" r="0.9" fill="#cdd6e4" opacity="0.41" stroke="none"/><circle cx="28" cy="55" r="1.5" fill="#cdd6e4" opacity="0.59" stroke="none"/><circle cx="965" cy="154" r="0.9" fill="#cdd6e4" opacity="0.67" stroke="none"/><circle cx="1085" cy="311" r="1.1" fill="#cdd6e4" opacity="0.59" stroke="none"/><circle cx="179" cy="582" r="1.1" fill="#cdd6e4" opacity="0.63" stroke="none"/><circle cx="1085" cy="395" r="1.1" fill="#cdd6e4" opacity="0.56" stroke="none"/><circle cx="462" cy="50" r="0.7" fill="#cdd6e4" opacity="0.72" stroke="none"/><circle cx="1224" cy="351" r="0.7" fill="#cdd6e4" opacity="0.70" stroke="none"/><circle cx="683" cy="634" r="1.5" fill="#cdd6e4" opacity="0.46" stroke="none"/><circle cx="1183" cy="7" r="0.9" fill="#cdd6e4" opacity="0.41" stroke="none"/><circle cx="905" cy="590" r="0.7" fill="#cdd6e4" opacity="0.72" stroke="none"/><circle cx="677" cy="0" r="1.5" fill="#cdd6e4" opacity="0.81" stroke="none"/><circle cx="869" cy="7" r="0.7" fill="#cdd6e4" opacity="0.64" stroke="none"/><circle cx="570" cy="632" r="0.9" fill="#cdd6e4" opacity="0.43" stroke="none"/><circle cx="40" cy="114" r="1.5" fill="#cdd6e4" opacity="0.76" stroke="none"/><circle cx="353" cy="337" r="1.1" fill="#cdd6e4" opacity="0.26" stroke="none"/><circle cx="1154" cy="127" r="1.5" fill="#cdd6e4" opacity="0.48" stroke="none"/><circle cx="961" cy="435" r="0.9" fill="#cdd6e4" opacity="0.44" stroke="none"/><circle cx="985" cy="249" r="0.7" fill="#cdd6e4" opacity="0.34" stroke="none"/><circle cx="901" cy="308" r="1.5" fill="#cdd6e4" opacity="0.28" stroke="none"/><circle cx="987" cy="381" r="1.5" fill="#cdd6e4" opacity="0.42" stroke="none"/><circle cx="856" cy="614" r="0.7" fill="#cdd6e4" opacity="0.45" stroke="none"/><circle cx="1032" cy="397" r="0.7" fill="#cdd6e4" opacity="0.65" stroke="none"/><circle cx="1154" cy="77" r="0.7" fill="#cdd6e4" opacity="0.34" stroke="none"/><circle cx="97" cy="445" r="0.7" fill="#cdd6e4" opacity="0.36" stroke="none"/><circle cx="160" cy="403" r="1.5" fill="#cdd6e4" opacity="0.46" stroke="none"/><circle cx="70" cy="596" r="0.7" fill="#cdd6e4" opacity="0.85" stroke="none"/><circle cx="686" cy="276" r="0.7" fill="#cdd6e4" opacity="0.27" stroke="none"/><circle cx="151" cy="238" r="0.9" fill="#cdd6e4" opacity="0.47" stroke="none"/><circle cx="161" cy="451" r="0.7" fill="#cdd6e4" opacity="0.55" stroke="none"/><circle cx="60" cy="154" r="1.1" fill="#cdd6e4" opacity="0.66" stroke="none"/><circle cx="515" cy="437" r="1.5" fill="#cdd6e4" opacity="0.69" stroke="none"/><circle cx="682" cy="16" r="1.5" fill="#cdd6e4" opacity="0.34" stroke="none"/><circle cx="731" cy="200" r="1.1" fill="#cdd6e4" opacity="0.79" stroke="none"/><circle cx="903" cy="134" r="0.7" fill="#cdd6e4" opacity="0.64" stroke="none"/><circle cx="536" cy="377" r="1.5" fill="#cdd6e4" opacity="0.84" stroke="none"/><circle cx="485" cy="479" r="1.5" fill="#cdd6e4" opacity="0.76" stroke="none"/><circle cx="831" cy="147" r="0.7" fill="#cdd6e4" opacity="0.59" stroke="none"/><circle cx="919" cy="477" r="0.9" fill="#cdd6e4" opacity="0.47" stroke="none"/><circle cx="751" cy="507" r="0.7" fill="#cdd6e4" opacity="0.41" stroke="none"/><circle cx="808" cy="620" r="0.7" fill="#cdd6e4" opacity="0.61" stroke="none"/><circle cx="800" cy="529" r="1.1" fill="#cdd6e4" opacity="0.84" stroke="none"/><circle cx="178" cy="184" r="1.5" fill="#cdd6e4" opacity="0.62" stroke="none"/><circle cx="86" cy="73" r="1.1" fill="#cdd6e4" opacity="0.44" stroke="none"/><circle cx="907" cy="55" r="0.9" fill="#cdd6e4" opacity="0.33" stroke="none"/><circle cx="128" cy="530" r="1.5" fill="#cdd6e4" opacity="0.77" stroke="none"/><circle cx="486" cy="462" r="0.9" fill="#cdd6e4" opacity="0.62" stroke="none"/><circle cx="786" cy="157" r="1.1" fill="#cdd6e4" opacity="0.49" stroke="none"/><circle cx="721" cy="229" r="0.9" fill="#cdd6e4" opacity="0.39" stroke="none"/><circle cx="211" cy="397" r="0.7" fill="#cdd6e4" opacity="0.69" stroke="none"/><text x="26" y="40" font-family="Consolas,monospace" font-size="20" fill="#c3cad6">MOCKINGBIRD — hull iterations, round 4.9</text><text x="26" y="62" font-family="Consolas,monospace" font-size="12" fill="#8891a0">verdict on 4.8: ports PASS · fin leading edge now starts at the dorsal fins' fore point and sweeps back</text><g transform="translate(280.0 300.0) scale(0.850)"><path d="M 0.0,-104.0 L 8.0,-95.0 Q 10.0,-90.0 9.0,-84.0 L 8.5,-78.0 L 9.0,-62.0 L 24.0,-34.0 Q 27.0,-18.0 27.0,-4.0 L 19.5,22.0 Q 15.0,30.0 14.0,38.0 Q 16.0,44.0 24.0,47.0 L 26.5,52.0 L 26.5,59.0 Q 25.0,62.0 18.0,62.0 L 0.0,62.0 L -18.0,62.0 Q -25.0,62.0 -26.5,59.0 L -26.5,52.0 L -24.0,47.0 Q -16.0,44.0 -14.0,38.0 Q -15.0,30.0 -19.5,22.0 L -27.0,-4.0 Q -27.0,-18.0 -24.0,-34.0 L -9.0,-62.0 L -8.5,-78.0 L -9.0,-84.0 Q -10.0,-90.0 -8.0,-95.0 L 0.0,-104.0 Z" fill="#3b8de0" stroke="#343a44" stroke-width="2.5" stroke-linejoin="round" opacity="1.0"/><g transform="translate(0.0 -4.0) scale(0.850)"><path d="M 0.0,-104.0 L 8.0,-95.0 Q 10.0,-90.0 9.0,-84.0 L 8.5,-78.0 L 9.0,-62.0 L 24.0,-34.0 Q 27.0,-18.0 27.0,-4.0 L 19.5,22.0 Q 15.0,30.0 14.0,38.0 Q 16.0,44.0 24.0,47.0 L 26.5,52.0 L 26.5,59.0 Q 25.0,62.0 18.0,62.0 L 0.0,62.0 L -18.0,62.0 Q -25.0,62.0 -26.5,59.0 L -26.5,52.0 L -24.0,47.0 Q -16.0,44.0 -14.0,38.0 Q -15.0,30.0 -19.5,22.0 L -27.0,-4.0 Q -27.0,-18.0 -24.0,-34.0 L -9.0,-62.0 L -8.5,-78.0 L -9.0,-84.0 Q -10.0,-90.0 -8.0,-95.0 L 0.0,-104.0 Z" fill="#5aa3ea" stroke="none" stroke-width="2.5" stroke-linejoin="round" opacity="0.5"/></g><polygon points="-2.0,-90.0 2.0,-90.0 3.5,44.0 -3.5,44.0" fill="#eef2f6" stroke="none" stroke-width="2.0" stroke-linejoin="round" opacity="1.0"/><path d="M -6.1,-76.0 L -6.6,-62.0 L -21.6,-34.0 L -24.6,-18.0 L -24.6,-4.0 L -17.1,22.0" fill="none" stroke="#eef2f6" stroke-width="2.2" stroke-linecap="round" stroke-linejoin="round" opacity=".9"/><path d="M 6.1,-76.0 L 6.6,-62.0 L 21.6,-34.0 L 24.6,-18.0 L 24.6,-4.0 L 17.1,22.0" fill="none" stroke="#eef2f6" stroke-width="2.2" stroke-linecap="round" stroke-linejoin="round" opacity=".9"/><path d="M -14.6,41.0 L -20.1,46.5" fill="none" stroke="#eef2f6" stroke-width="2.2" stroke-linecap="round" stroke-linejoin="round" opacity=".9"/><path d="M 14.6,41.0 L 20.1,46.5" fill="none" stroke="#eef2f6" stroke-width="2.2" stroke-linecap="round" stroke-linejoin="round" opacity=".9"/><rect x="-28.5" y="40.0" width="15.0" height="28.0" rx="7.1" fill="#3b8de0" stroke="#343a44" stroke-width="2.2" opacity="1.0"/><line x1="-21.0" y1="42.5" x2="-21.0" y2="65.5" stroke="#eef2f6" stroke-width="2.6" stroke-linecap="round" opacity="0.95"/><rect x="-26.4" y="65.5" width="10.8" height="5.5" rx="2.2" fill="#2a66a8" stroke="#343a44" stroke-width="1.6" opacity="1.0"/><ellipse cx="-21.0" cy="76.0" rx="6.4" ry="10" fill="url(#glow)"/><ellipse cx="-21.0" cy="71.5" rx="3.8" ry="5.5" fill="#ffe3b0" stroke="none"/><rect x="-7.5" y="40.0" width="15.0" height="28.0" rx="7.1" fill="#3b8de0" stroke="#343a44" stroke-width="2.2" opacity="1.0"/><line x1="0.0" y1="42.5" x2="0.0" y2="65.5" stroke="#eef2f6" stroke-width="2.6" stroke-linecap="round" opacity="0.95"/><rect x="-5.4" y="65.5" width="10.8" height="5.5" rx="2.2" fill="#2a66a8" stroke="#343a44" stroke-width="1.6" opacity="1.0"/><ellipse cx="0.0" cy="76.0" rx="6.4" ry="10" fill="url(#glow)"/><ellipse cx="0.0" cy="71.5" rx="3.8" ry="5.5" fill="#ffe3b0" stroke="none"/><rect x="13.5" y="40.0" width="15.0" height="28.0" rx="7.1" fill="#3b8de0" stroke="#343a44" stroke-width="2.2" opacity="1.0"/><line x1="21.0" y1="42.5" x2="21.0" y2="65.5" stroke="#eef2f6" stroke-width="2.6" stroke-linecap="round" opacity="0.95"/><rect x="15.6" y="65.5" width="10.8" height="5.5" rx="2.2" fill="#2a66a8" stroke="#343a44" stroke-width="1.6" opacity="1.0"/><ellipse cx="21.0" cy="76.0" rx="6.4" ry="10" fill="url(#glow)"/><ellipse cx="21.0" cy="71.5" rx="3.8" ry="5.5" fill="#ffe3b0" stroke="none"/><rect x="-21.2" y="27.0" width="7.2" height="10.0" rx="2.5" fill="#3b8de0" stroke="#343a44" stroke-width="1.6" opacity="1.0"/><rect x="-16.2" y="27.9" width="4.7" height="8.2" rx="0.0" fill="#3b8de0" stroke="none" stroke-width="2.0" opacity="1.0"/><rect x="-20.4" y="29.8" width="2.8" height="4.4" rx="1.1" fill="#2a66a8" stroke="#343a44" stroke-width="0.9" opacity="1.0"/><circle cx="-16.6" cy="29.4" r="0.8" fill="#5fd8e8" stroke="none" stroke-width="2.0" opacity="1.0"/><circle cx="-16.6" cy="34.6" r="0.8" fill="#5fd8e8" stroke="none" stroke-width="2.0" opacity="1.0"/><rect x="14.0" y="27.0" width="7.2" height="10.0" rx="2.5" fill="#3b8de0" stroke="#343a44" stroke-width="1.6" opacity="1.0"/><rect x="11.5" y="27.9" width="4.7" height="8.2" rx="0.0" fill="#3b8de0" stroke="none" stroke-width="2.0" opacity="1.0"/><rect x="17.6" y="29.8" width="2.8" height="4.4" rx="1.1" fill="#2a66a8" stroke="#343a44" stroke-width="0.9" opacity="1.0"/><circle cx="16.6" cy="29.4" r="0.8" fill="#5fd8e8" stroke="none" stroke-width="2.0" opacity="1.0"/><circle cx="16.6" cy="34.6" r="0.8" fill="#5fd8e8" stroke="none" stroke-width="2.0" opacity="1.0"/><path d="M 0.0,-101.5 L 6.0,-95.0 Q 7.5,-90.0 6.5,-85.0 L 0.0,-82.0 L -6.5,-85.0 Q -7.5,-90.0 -6.0,-95.0 L 0.0,-101.5 Z" fill="#5fd8e8" stroke="#343a44" stroke-width="1.6" stroke-linejoin="round" opacity="1.0"/><line x1="0.0" y1="-101.0" x2="0.0" y2="-83.0" stroke="#343a44" stroke-width="1.4" stroke-linecap="round" opacity="1.0"/><line x1="-6.2" y1="-91.0" x2="6.2" y2="-91.0" stroke="#343a44" stroke-width="1.3" stroke-linecap="round" opacity="1.0"/></g><text x="280" y="480" font-family="Consolas,monospace" font-size="15" fill="#8891a0" text-anchor="middle">STOCK</text><text x="280" y="498" font-family="Consolas,monospace" font-size="12" fill="#8891a0" opacity="0.7" text-anchor="middle">no atmo package — the workaday bird</text><g transform="translate(620.0 300.0) scale(0.850)"><polygon points="-21.0,43.0 -35.3,56.0 -36.1,62.0 -32.9,68.0 -21.0,68.0" fill="#3b8de0" stroke="#343a44" stroke-width="1.8" stroke-linejoin="round" opacity="1.0"/><path d="M -33.1,56.8 L -33.9,62.8 L -30.7,68.8" fill="none" stroke="#eef2f6" stroke-width="2" stroke-linecap="round" stroke-linejoin="round" opacity=".95"/><polygon points="21.0,43.0 35.3,56.0 36.1,62.0 32.9,68.0 21.0,68.0" fill="#3b8de0" stroke="#343a44" stroke-width="1.8" stroke-linejoin="round" opacity="1.0"/><path d="M 33.1,56.8 L 33.9,62.8 L 30.7,68.8" fill="none" stroke="#eef2f6" stroke-width="2" stroke-linecap="round" stroke-linejoin="round" opacity=".95"/><path d="M 0.0,-104.0 L 8.0,-95.0 Q 10.0,-90.0 9.0,-84.0 L 8.5,-78.0 L 9.0,-62.0 L 24.0,-34.0 Q 27.0,-18.0 27.0,-4.0 L 19.5,22.0 Q 15.0,30.0 14.0,38.0 Q 16.0,44.0 24.0,47.0 L 26.5,52.0 L 26.5,59.0 Q 25.0,62.0 18.0,62.0 L 0.0,62.0 L -18.0,62.0 Q -25.0,62.0 -26.5,59.0 L -26.5,52.0 L -24.0,47.0 Q -16.0,44.0 -14.0,38.0 Q -15.0,30.0 -19.5,22.0 L -27.0,-4.0 Q -27.0,-18.0 -24.0,-34.0 L -9.0,-62.0 L -8.5,-78.0 L -9.0,-84.0 Q -10.0,-90.0 -8.0,-95.0 L 0.0,-104.0 Z" fill="#3b8de0" stroke="#343a44" stroke-width="2.5" stroke-linejoin="round" opacity="1.0"/><g transform="translate(0.0 -4.0) scale(0.850)"><path d="M 0.0,-104.0 L 8.0,-95.0 Q 10.0,-90.0 9.0,-84.0 L 8.5,-78.0 L 9.0,-62.0 L 24.0,-34.0 Q 27.0,-18.0 27.0,-4.0 L 19.5,22.0 Q 15.0,30.0 14.0,38.0 Q 16.0,44.0 24.0,47.0 L 26.5,52.0 L 26.5,59.0 Q 25.0,62.0 18.0,62.0 L 0.0,62.0 L -18.0,62.0 Q -25.0,62.0 -26.5,59.0 L -26.5,52.0 L -24.0,47.0 Q -16.0,44.0 -14.0,38.0 Q -15.0,30.0 -19.5,22.0 L -27.0,-4.0 Q -27.0,-18.0 -24.0,-34.0 L -9.0,-62.0 L -8.5,-78.0 L -9.0,-84.0 Q -10.0,-90.0 -8.0,-95.0 L 0.0,-104.0 Z" fill="#5aa3ea" stroke="none" stroke-width="2.5" stroke-linejoin="round" opacity="0.5"/></g><polygon points="-2.0,-90.0 2.0,-90.0 3.5,44.0 -3.5,44.0" fill="#eef2f6" stroke="none" stroke-width="2.0" stroke-linejoin="round" opacity="1.0"/><path d="M -6.1,-76.0 L -6.6,-62.0 L -21.6,-34.0 L -24.6,-18.0 L -24.6,-4.0 L -17.1,22.0" fill="none" stroke="#eef2f6" stroke-width="2.2" stroke-linecap="round" stroke-linejoin="round" opacity=".9"/><path d="M 6.1,-76.0 L 6.6,-62.0 L 21.6,-34.0 L 24.6,-18.0 L 24.6,-4.0 L 17.1,22.0" fill="none" stroke="#eef2f6" stroke-width="2.2" stroke-linecap="round" stroke-linejoin="round" opacity=".9"/><path d="M -14.6,41.0 L -20.1,46.5" fill="none" stroke="#eef2f6" stroke-width="2.2" stroke-linecap="round" stroke-linejoin="round" opacity=".9"/><path d="M 14.6,41.0 L 20.1,46.5" fill="none" stroke="#eef2f6" stroke-width="2.2" stroke-linecap="round" stroke-linejoin="round" opacity=".9"/><rect x="-28.5" y="40.0" width="15.0" height="28.0" rx="7.1" fill="#3b8de0" stroke="#343a44" stroke-width="2.2" opacity="1.0"/><rect x="-26.4" y="65.5" width="10.8" height="5.5" rx="2.2" fill="#2a66a8" stroke="#343a44" stroke-width="1.6" opacity="1.0"/><ellipse cx="-21.0" cy="76.0" rx="6.4" ry="10" fill="url(#glow)"/><ellipse cx="-21.0" cy="71.5" rx="3.8" ry="5.5" fill="#ffe3b0" stroke="none"/><rect x="-7.5" y="40.0" width="15.0" height="28.0" rx="7.1" fill="#3b8de0" stroke="#343a44" stroke-width="2.2" opacity="1.0"/><rect x="-5.4" y="65.5" width="10.8" height="5.5" rx="2.2" fill="#2a66a8" stroke="#343a44" stroke-width="1.6" opacity="1.0"/><ellipse cx="0.0" cy="76.0" rx="6.4" ry="10" fill="url(#glow)"/><ellipse cx="0.0" cy="71.5" rx="3.8" ry="5.5" fill="#ffe3b0" stroke="none"/><rect x="13.5" y="40.0" width="15.0" height="28.0" rx="7.1" fill="#3b8de0" stroke="#343a44" stroke-width="2.2" opacity="1.0"/><rect x="15.6" y="65.5" width="10.8" height="5.5" rx="2.2" fill="#2a66a8" stroke="#343a44" stroke-width="1.6" opacity="1.0"/><ellipse cx="21.0" cy="76.0" rx="6.4" ry="10" fill="url(#glow)"/><ellipse cx="21.0" cy="71.5" rx="3.8" ry="5.5" fill="#ffe3b0" stroke="none"/><polygon points="-21.0,43.0 -19.1,48.0 -19.1,66.0 -19.8,73.6 -21.0,75.2 -22.2,73.6 -22.9,66.0 -22.9,48.0" fill="#eef2f6" stroke="#343a44" stroke-width="1.0" stroke-linejoin="round" opacity="1.0"/><polygon points="0.0,43.0 1.9,48.0 1.9,66.0 1.2,73.6 0.0,75.2 -1.2,73.6 -1.9,66.0 -1.9,48.0" fill="#eef2f6" stroke="#343a44" stroke-width="1.0" stroke-linejoin="round" opacity="1.0"/><polygon points="21.0,43.0 22.9,48.0 22.9,66.0 22.2,73.6 21.0,75.2 19.8,73.6 19.1,66.0 19.1,48.0" fill="#eef2f6" stroke="#343a44" stroke-width="1.0" stroke-linejoin="round" opacity="1.0"/><rect x="-21.2" y="27.0" width="7.2" height="10.0" rx="2.5" fill="#3b8de0" stroke="#343a44" stroke-width="1.6" opacity="1.0"/><rect x="-16.2" y="27.9" width="4.7" height="8.2" rx="0.0" fill="#3b8de0" stroke="none" stroke-width="2.0" opacity="1.0"/><rect x="-20.4" y="29.8" width="2.8" height="4.4" rx="1.1" fill="#2a66a8" stroke="#343a44" stroke-width="0.9" opacity="1.0"/><circle cx="-16.6" cy="29.4" r="0.8" fill="#5fd8e8" stroke="none" stroke-width="2.0" opacity="1.0"/><circle cx="-16.6" cy="34.6" r="0.8" fill="#5fd8e8" stroke="none" stroke-width="2.0" opacity="1.0"/><rect x="14.0" y="27.0" width="7.2" height="10.0" rx="2.5" fill="#3b8de0" stroke="#343a44" stroke-width="1.6" opacity="1.0"/><rect x="11.5" y="27.9" width="4.7" height="8.2" rx="0.0" fill="#3b8de0" stroke="none" stroke-width="2.0" opacity="1.0"/><rect x="17.6" y="29.8" width="2.8" height="4.4" rx="1.1" fill="#2a66a8" stroke="#343a44" stroke-width="0.9" opacity="1.0"/><circle cx="16.6" cy="29.4" r="0.8" fill="#5fd8e8" stroke="none" stroke-width="2.0" opacity="1.0"/><circle cx="16.6" cy="34.6" r="0.8" fill="#5fd8e8" stroke="none" stroke-width="2.0" opacity="1.0"/><path d="M 0.0,-101.5 L 6.0,-95.0 Q 7.5,-90.0 6.5,-85.0 L 0.0,-82.0 L -6.5,-85.0 Q -7.5,-90.0 -6.0,-95.0 L 0.0,-101.5 Z" fill="#5fd8e8" stroke="#343a44" stroke-width="1.6" stroke-linejoin="round" opacity="1.0"/><line x1="0.0" y1="-101.0" x2="0.0" y2="-83.0" stroke="#343a44" stroke-width="1.4" stroke-linecap="round" opacity="1.0"/><line x1="-6.2" y1="-91.0" x2="6.2" y2="-91.0" stroke="#343a44" stroke-width="1.3" stroke-linecap="round" opacity="1.0"/></g><text x="620" y="480" font-family="Consolas,monospace" font-size="15" fill="#8891a0" text-anchor="middle">ATMO · FL 0.8</text><text x="620" y="498" font-family="Consolas,monospace" font-size="12" fill="#8891a0" opacity="0.7" text-anchor="middle">fins resized up</text><g transform="translate(960.0 300.0) scale(0.850)"><polygon points="-21.0,43.0 -37.0,56.0 -38.0,62.0 -34.0,68.0 -21.0,68.0" fill="#3b8de0" stroke="#343a44" stroke-width="1.8" stroke-linejoin="round" opacity="1.0"/><path d="M -34.8,56.8 L -35.8,62.8 L -31.8,68.8" fill="none" stroke="#eef2f6" stroke-width="2" stroke-linecap="round" stroke-linejoin="round" opacity=".95"/><polygon points="21.0,43.0 37.0,56.0 38.0,62.0 34.0,68.0 21.0,68.0" fill="#3b8de0" stroke="#343a44" stroke-width="1.8" stroke-linejoin="round" opacity="1.0"/><path d="M 34.8,56.8 L 35.8,62.8 L 31.8,68.8" fill="none" stroke="#eef2f6" stroke-width="2" stroke-linecap="round" stroke-linejoin="round" opacity=".95"/><path d="M 0.0,-104.0 L 8.0,-95.0 Q 10.0,-90.0 9.0,-84.0 L 8.5,-78.0 L 9.0,-62.0 L 24.0,-34.0 Q 27.0,-18.0 27.0,-4.0 L 19.5,22.0 Q 15.0,30.0 14.0,38.0 Q 16.0,44.0 24.0,47.0 L 26.5,52.0 L 26.5,59.0 Q 25.0,62.0 18.0,62.0 L 0.0,62.0 L -18.0,62.0 Q -25.0,62.0 -26.5,59.0 L -26.5,52.0 L -24.0,47.0 Q -16.0,44.0 -14.0,38.0 Q -15.0,30.0 -19.5,22.0 L -27.0,-4.0 Q -27.0,-18.0 -24.0,-34.0 L -9.0,-62.0 L -8.5,-78.0 L -9.0,-84.0 Q -10.0,-90.0 -8.0,-95.0 L 0.0,-104.0 Z" fill="#3b8de0" stroke="#343a44" stroke-width="2.5" stroke-linejoin="round" opacity="1.0"/><g transform="translate(0.0 -4.0) scale(0.850)"><path d="M 0.0,-104.0 L 8.0,-95.0 Q 10.0,-90.0 9.0,-84.0 L 8.5,-78.0 L 9.0,-62.0 L 24.0,-34.0 Q 27.0,-18.0 27.0,-4.0 L 19.5,22.0 Q 15.0,30.0 14.0,38.0 Q 16.0,44.0 24.0,47.0 L 26.5,52.0 L 26.5,59.0 Q 25.0,62.0 18.0,62.0 L 0.0,62.0 L -18.0,62.0 Q -25.0,62.0 -26.5,59.0 L -26.5,52.0 L -24.0,47.0 Q -16.0,44.0 -14.0,38.0 Q -15.0,30.0 -19.5,22.0 L -27.0,-4.0 Q -27.0,-18.0 -24.0,-34.0 L -9.0,-62.0 L -8.5,-78.0 L -9.0,-84.0 Q -10.0,-90.0 -8.0,-95.0 L 0.0,-104.0 Z" fill="#5aa3ea" stroke="none" stroke-width="2.5" stroke-linejoin="round" opacity="0.5"/></g><polygon points="-2.0,-90.0 2.0,-90.0 3.5,44.0 -3.5,44.0" fill="#eef2f6" stroke="none" stroke-width="2.0" stroke-linejoin="round" opacity="1.0"/><path d="M -6.1,-76.0 L -6.6,-62.0 L -21.6,-34.0 L -24.6,-18.0 L -24.6,-4.0 L -17.1,22.0" fill="none" stroke="#eef2f6" stroke-width="2.2" stroke-linecap="round" stroke-linejoin="round" opacity=".9"/><path d="M 6.1,-76.0 L 6.6,-62.0 L 21.6,-34.0 L 24.6,-18.0 L 24.6,-4.0 L 17.1,22.0" fill="none" stroke="#eef2f6" stroke-width="2.2" stroke-linecap="round" stroke-linejoin="round" opacity=".9"/><path d="M -14.6,41.0 L -20.1,46.5" fill="none" stroke="#eef2f6" stroke-width="2.2" stroke-linecap="round" stroke-linejoin="round" opacity=".9"/><path d="M 14.6,41.0 L 20.1,46.5" fill="none" stroke="#eef2f6" stroke-width="2.2" stroke-linecap="round" stroke-linejoin="round" opacity=".9"/><rect x="-28.5" y="40.0" width="15.0" height="28.0" rx="7.1" fill="#3b8de0" stroke="#343a44" stroke-width="2.2" opacity="1.0"/><rect x="-26.4" y="65.5" width="10.8" height="5.5" rx="2.2" fill="#2a66a8" stroke="#343a44" stroke-width="1.6" opacity="1.0"/><ellipse cx="-21.0" cy="76.0" rx="6.4" ry="10" fill="url(#glow)"/><ellipse cx="-21.0" cy="71.5" rx="3.8" ry="5.5" fill="#ffe3b0" stroke="none"/><rect x="-7.5" y="40.0" width="15.0" height="28.0" rx="7.1" fill="#3b8de0" stroke="#343a44" stroke-width="2.2" opacity="1.0"/><rect x="-5.4" y="65.5" width="10.8" height="5.5" rx="2.2" fill="#2a66a8" stroke="#343a44" stroke-width="1.6" opacity="1.0"/><ellipse cx="0.0" cy="76.0" rx="6.4" ry="10" fill="url(#glow)"/><ellipse cx="0.0" cy="71.5" rx="3.8" ry="5.5" fill="#ffe3b0" stroke="none"/><rect x="13.5" y="40.0" width="15.0" height="28.0" rx="7.1" fill="#3b8de0" stroke="#343a44" stroke-width="2.2" opacity="1.0"/><rect x="15.6" y="65.5" width="10.8" height="5.5" rx="2.2" fill="#2a66a8" stroke="#343a44" stroke-width="1.6" opacity="1.0"/><ellipse cx="21.0" cy="76.0" rx="6.4" ry="10" fill="url(#glow)"/><ellipse cx="21.0" cy="71.5" rx="3.8" ry="5.5" fill="#ffe3b0" stroke="none"/><polygon points="-21.0,43.0 -19.1,48.0 -19.1,66.0 -19.8,75.0 -21.0,77.0 -22.2,75.0 -22.9,66.0 -22.9,48.0" fill="#eef2f6" stroke="#343a44" stroke-width="1.0" stroke-linejoin="round" opacity="1.0"/><polygon points="0.0,43.0 1.9,48.0 1.9,66.0 1.2,75.0 0.0,77.0 -1.2,75.0 -1.9,66.0 -1.9,48.0" fill="#eef2f6" stroke="#343a44" stroke-width="1.0" stroke-linejoin="round" opacity="1.0"/><polygon points="21.0,43.0 22.9,48.0 22.9,66.0 22.2,75.0 21.0,77.0 19.8,75.0 19.1,66.0 19.1,48.0" fill="#eef2f6" stroke="#343a44" stroke-width="1.0" stroke-linejoin="round" opacity="1.0"/><rect x="-21.2" y="27.0" width="7.2" height="10.0" rx="2.5" fill="#3b8de0" stroke="#343a44" stroke-width="1.6" opacity="1.0"/><rect x="-16.2" y="27.9" width="4.7" height="8.2" rx="0.0" fill="#3b8de0" stroke="none" stroke-width="2.0" opacity="1.0"/><rect x="-20.4" y="29.8" width="2.8" height="4.4" rx="1.1" fill="#2a66a8" stroke="#343a44" stroke-width="0.9" opacity="1.0"/><circle cx="-16.6" cy="29.4" r="0.8" fill="#5fd8e8" stroke="none" stroke-width="2.0" opacity="1.0"/><circle cx="-16.6" cy="34.6" r="0.8" fill="#5fd8e8" stroke="none" stroke-width="2.0" opacity="1.0"/><rect x="14.0" y="27.0" width="7.2" height="10.0" rx="2.5" fill="#3b8de0" stroke="#343a44" stroke-width="1.6" opacity="1.0"/><rect x="11.5" y="27.9" width="4.7" height="8.2" rx="0.0" fill="#3b8de0" stroke="none" stroke-width="2.0" opacity="1.0"/><rect x="17.6" y="29.8" width="2.8" height="4.4" rx="1.1" fill="#2a66a8" stroke="#343a44" stroke-width="0.9" opacity="1.0"/><circle cx="16.6" cy="29.4" r="0.8" fill="#5fd8e8" stroke="none" stroke-width="2.0" opacity="1.0"/><circle cx="16.6" cy="34.6" r="0.8" fill="#5fd8e8" stroke="none" stroke-width="2.0" opacity="1.0"/><path d="M 0.0,-101.5 L 6.0,-95.0 Q 7.5,-90.0 6.5,-85.0 L 0.0,-82.0 L -6.5,-85.0 Q -7.5,-90.0 -6.0,-95.0 L 0.0,-101.5 Z" fill="#5fd8e8" stroke="#343a44" stroke-width="1.6" stroke-linejoin="round" opacity="1.0"/><line x1="0.0" y1="-101.0" x2="0.0" y2="-83.0" stroke="#343a44" stroke-width="1.4" stroke-linecap="round" opacity="1.0"/><line x1="-6.2" y1="-91.0" x2="6.2" y2="-91.0" stroke="#343a44" stroke-width="1.3" stroke-linecap="round" opacity="1.0"/></g><text x="960" y="480" font-family="Consolas,monospace" font-size="15" fill="#8891a0" text-anchor="middle">ATMO · FL 1.0</text><text x="960" y="498" font-family="Consolas,monospace" font-size="12" fill="#8891a0" opacity="0.7" text-anchor="middle">longer trailing edges</text><rect x="26.0" y="514.0" width="1188.0" height="100.0" rx="4.0" fill="#0d1119" stroke="#232a3a" stroke-width="1.5" opacity="1.0"/><text x="40" y="534" font-family="Consolas,monospace" font-size="12" fill="#8891a0">AT GAME SCALE — 45 px, the readability test that matters (Classic sprite was 21×45: ratio 0.47 — the goose was always canon)</text><g transform="translate(280.0 586.0) scale(0.242)"><path d="M 0.0,-104.0 L 8.0,-95.0 Q 10.0,-90.0 9.0,-84.0 L 8.5,-78.0 L 9.0,-62.0 L 24.0,-34.0 Q 27.0,-18.0 27.0,-4.0 L 19.5,22.0 Q 15.0,30.0 14.0,38.0 Q 16.0,44.0 24.0,47.0 L 26.5,52.0 L 26.5,59.0 Q 25.0,62.0 18.0,62.0 L 0.0,62.0 L -18.0,62.0 Q -25.0,62.0 -26.5,59.0 L -26.5,52.0 L -24.0,47.0 Q -16.0,44.0 -14.0,38.0 Q -15.0,30.0 -19.5,22.0 L -27.0,-4.0 Q -27.0,-18.0 -24.0,-34.0 L -9.0,-62.0 L -8.5,-78.0 L -9.0,-84.0 Q -10.0,-90.0 -8.0,-95.0 L 0.0,-104.0 Z" fill="#3b8de0" stroke="#343a44" stroke-width="2.5" stroke-linejoin="round" opacity="1.0"/><g transform="translate(0.0 -4.0) scale(0.850)"><path d="M 0.0,-104.0 L 8.0,-95.0 Q 10.0,-90.0 9.0,-84.0 L 8.5,-78.0 L 9.0,-62.0 L 24.0,-34.0 Q 27.0,-18.0 27.0,-4.0 L 19.5,22.0 Q 15.0,30.0 14.0,38.0 Q 16.0,44.0 24.0,47.0 L 26.5,52.0 L 26.5,59.0 Q 25.0,62.0 18.0,62.0 L 0.0,62.0 L -18.0,62.0 Q -25.0,62.0 -26.5,59.0 L -26.5,52.0 L -24.0,47.0 Q -16.0,44.0 -14.0,38.0 Q -15.0,30.0 -19.5,22.0 L -27.0,-4.0 Q -27.0,-18.0 -24.0,-34.0 L -9.0,-62.0 L -8.5,-78.0 L -9.0,-84.0 Q -10.0,-90.0 -8.0,-95.0 L 0.0,-104.0 Z" fill="#5aa3ea" stroke="none" stroke-width="2.5" stroke-linejoin="round" opacity="0.5"/></g><polygon points="-2.0,-90.0 2.0,-90.0 3.5,44.0 -3.5,44.0" fill="#eef2f6" stroke="none" stroke-width="2.0" stroke-linejoin="round" opacity="1.0"/><path d="M -6.1,-76.0 L -6.6,-62.0 L -21.6,-34.0 L -24.6,-18.0 L -24.6,-4.0 L -17.1,22.0" fill="none" stroke="#eef2f6" stroke-width="2.2" stroke-linecap="round" stroke-linejoin="round" opacity=".9"/><path d="M 6.1,-76.0 L 6.6,-62.0 L 21.6,-34.0 L 24.6,-18.0 L 24.6,-4.0 L 17.1,22.0" fill="none" stroke="#eef2f6" stroke-width="2.2" stroke-linecap="round" stroke-linejoin="round" opacity=".9"/><path d="M -14.6,41.0 L -20.1,46.5" fill="none" stroke="#eef2f6" stroke-width="2.2" stroke-linecap="round" stroke-linejoin="round" opacity=".9"/><path d="M 14.6,41.0 L 20.1,46.5" fill="none" stroke="#eef2f6" stroke-width="2.2" stroke-linecap="round" stroke-linejoin="round" opacity=".9"/><rect x="-28.5" y="40.0" width="15.0" height="28.0" rx="7.1" fill="#3b8de0" stroke="#343a44" stroke-width="2.2" opacity="1.0"/><line x1="-21.0" y1="42.5" x2="-21.0" y2="65.5" stroke="#eef2f6" stroke-width="2.6" stroke-linecap="round" opacity="0.95"/><rect x="-26.4" y="65.5" width="10.8" height="5.5" rx="2.2" fill="#2a66a8" stroke="#343a44" stroke-width="1.6" opacity="1.0"/><ellipse cx="-21.0" cy="76.0" rx="6.4" ry="10" fill="url(#glow)"/><ellipse cx="-21.0" cy="71.5" rx="3.8" ry="5.5" fill="#ffe3b0" stroke="none"/><rect x="-7.5" y="40.0" width="15.0" height="28.0" rx="7.1" fill="#3b8de0" stroke="#343a44" stroke-width="2.2" opacity="1.0"/><line x1="0.0" y1="42.5" x2="0.0" y2="65.5" stroke="#eef2f6" stroke-width="2.6" stroke-linecap="round" opacity="0.95"/><rect x="-5.4" y="65.5" width="10.8" height="5.5" rx="2.2" fill="#2a66a8" stroke="#343a44" stroke-width="1.6" opacity="1.0"/><ellipse cx="0.0" cy="76.0" rx="6.4" ry="10" fill="url(#glow)"/><ellipse cx="0.0" cy="71.5" rx="3.8" ry="5.5" fill="#ffe3b0" stroke="none"/><rect x="13.5" y="40.0" width="15.0" height="28.0" rx="7.1" fill="#3b8de0" stroke="#343a44" stroke-width="2.2" opacity="1.0"/><line x1="21.0" y1="42.5" x2="21.0" y2="65.5" stroke="#eef2f6" stroke-width="2.6" stroke-linecap="round" opacity="0.95"/><rect x="15.6" y="65.5" width="10.8" height="5.5" rx="2.2" fill="#2a66a8" stroke="#343a44" stroke-width="1.6" opacity="1.0"/><ellipse cx="21.0" cy="76.0" rx="6.4" ry="10" fill="url(#glow)"/><ellipse cx="21.0" cy="71.5" rx="3.8" ry="5.5" fill="#ffe3b0" stroke="none"/><rect x="-21.2" y="27.0" width="7.2" height="10.0" rx="2.5" fill="#3b8de0" stroke="#343a44" stroke-width="1.6" opacity="1.0"/><rect x="-16.2" y="27.9" width="4.7" height="8.2" rx="0.0" fill="#3b8de0" stroke="none" stroke-width="2.0" opacity="1.0"/><rect x="-20.4" y="29.8" width="2.8" height="4.4" rx="1.1" fill="#2a66a8" stroke="#343a44" stroke-width="0.9" opacity="1.0"/><circle cx="-16.6" cy="29.4" r="0.8" fill="#5fd8e8" stroke="none" stroke-width="2.0" opacity="1.0"/><circle cx="-16.6" cy="34.6" r="0.8" fill="#5fd8e8" stroke="none" stroke-width="2.0" opacity="1.0"/><rect x="14.0" y="27.0" width="7.2" height="10.0" rx="2.5" fill="#3b8de0" stroke="#343a44" stroke-width="1.6" opacity="1.0"/><rect x="11.5" y="27.9" width="4.7" height="8.2" rx="0.0" fill="#3b8de0" stroke="none" stroke-width="2.0" opacity="1.0"/><rect x="17.6" y="29.8" width="2.8" height="4.4" rx="1.1" fill="#2a66a8" stroke="#343a44" stroke-width="0.9" opacity="1.0"/><circle cx="16.6" cy="29.4" r="0.8" fill="#5fd8e8" stroke="none" stroke-width="2.0" opacity="1.0"/><circle cx="16.6" cy="34.6" r="0.8" fill="#5fd8e8" stroke="none" stroke-width="2.0" opacity="1.0"/><path d="M 0.0,-101.5 L 6.0,-95.0 Q 7.5,-90.0 6.5,-85.0 L 0.0,-82.0 L -6.5,-85.0 Q -7.5,-90.0 -6.0,-95.0 L 0.0,-101.5 Z" fill="#5fd8e8" stroke="#343a44" stroke-width="1.6" stroke-linejoin="round" opacity="1.0"/><line x1="0.0" y1="-101.0" x2="0.0" y2="-83.0" stroke="#343a44" stroke-width="1.4" stroke-linecap="round" opacity="1.0"/><line x1="-6.2" y1="-91.0" x2="6.2" y2="-91.0" stroke="#343a44" stroke-width="1.3" stroke-linecap="round" opacity="1.0"/></g><g transform="translate(620.0 586.0) scale(0.237)"><polygon points="-21.0,43.0 -35.3,56.0 -36.1,62.0 -32.9,68.0 -21.0,68.0" fill="#3b8de0" stroke="#343a44" stroke-width="1.8" stroke-linejoin="round" opacity="1.0"/><path d="M -33.1,56.8 L -33.9,62.8 L -30.7,68.8" fill="none" stroke="#eef2f6" stroke-width="2" stroke-linecap="round" stroke-linejoin="round" opacity=".95"/><polygon points="21.0,43.0 35.3,56.0 36.1,62.0 32.9,68.0 21.0,68.0" fill="#3b8de0" stroke="#343a44" stroke-width="1.8" stroke-linejoin="round" opacity="1.0"/><path d="M 33.1,56.8 L 33.9,62.8 L 30.7,68.8" fill="none" stroke="#eef2f6" stroke-width="2" stroke-linecap="round" stroke-linejoin="round" opacity=".95"/><path d="M 0.0,-104.0 L 8.0,-95.0 Q 10.0,-90.0 9.0,-84.0 L 8.5,-78.0 L 9.0,-62.0 L 24.0,-34.0 Q 27.0,-18.0 27.0,-4.0 L 19.5,22.0 Q 15.0,30.0 14.0,38.0 Q 16.0,44.0 24.0,47.0 L 26.5,52.0 L 26.5,59.0 Q 25.0,62.0 18.0,62.0 L 0.0,62.0 L -18.0,62.0 Q -25.0,62.0 -26.5,59.0 L -26.5,52.0 L -24.0,47.0 Q -16.0,44.0 -14.0,38.0 Q -15.0,30.0 -19.5,22.0 L -27.0,-4.0 Q -27.0,-18.0 -24.0,-34.0 L -9.0,-62.0 L -8.5,-78.0 L -9.0,-84.0 Q -10.0,-90.0 -8.0,-95.0 L 0.0,-104.0 Z" fill="#3b8de0" stroke="#343a44" stroke-width="2.5" stroke-linejoin="round" opacity="1.0"/><g transform="translate(0.0 -4.0) scale(0.850)"><path d="M 0.0,-104.0 L 8.0,-95.0 Q 10.0,-90.0 9.0,-84.0 L 8.5,-78.0 L 9.0,-62.0 L 24.0,-34.0 Q 27.0,-18.0 27.0,-4.0 L 19.5,22.0 Q 15.0,30.0 14.0,38.0 Q 16.0,44.0 24.0,47.0 L 26.5,52.0 L 26.5,59.0 Q 25.0,62.0 18.0,62.0 L 0.0,62.0 L -18.0,62.0 Q -25.0,62.0 -26.5,59.0 L -26.5,52.0 L -24.0,47.0 Q -16.0,44.0 -14.0,38.0 Q -15.0,30.0 -19.5,22.0 L -27.0,-4.0 Q -27.0,-18.0 -24.0,-34.0 L -9.0,-62.0 L -8.5,-78.0 L -9.0,-84.0 Q -10.0,-90.0 -8.0,-95.0 L 0.0,-104.0 Z" fill="#5aa3ea" stroke="none" stroke-width="2.5" stroke-linejoin="round" opacity="0.5"/></g><polygon points="-2.0,-90.0 2.0,-90.0 3.5,44.0 -3.5,44.0" fill="#eef2f6" stroke="none" stroke-width="2.0" stroke-linejoin="round" opacity="1.0"/><path d="M -6.1,-76.0 L -6.6,-62.0 L -21.6,-34.0 L -24.6,-18.0 L -24.6,-4.0 L -17.1,22.0" fill="none" stroke="#eef2f6" stroke-width="2.2" stroke-linecap="round" stroke-linejoin="round" opacity=".9"/><path d="M 6.1,-76.0 L 6.6,-62.0 L 21.6,-34.0 L 24.6,-18.0 L 24.6,-4.0 L 17.1,22.0" fill="none" stroke="#eef2f6" stroke-width="2.2" stroke-linecap="round" stroke-linejoin="round" opacity=".9"/><path d="M -14.6,41.0 L -20.1,46.5" fill="none" stroke="#eef2f6" stroke-width="2.2" stroke-linecap="round" stroke-linejoin="round" opacity=".9"/><path d="M 14.6,41.0 L 20.1,46.5" fill="none" stroke="#eef2f6" stroke-width="2.2" stroke-linecap="round" stroke-linejoin="round" opacity=".9"/><rect x="-28.5" y="40.0" width="15.0" height="28.0" rx="7.1" fill="#3b8de0" stroke="#343a44" stroke-width="2.2" opacity="1.0"/><rect x="-26.4" y="65.5" width="10.8" height="5.5" rx="2.2" fill="#2a66a8" stroke="#343a44" stroke-width="1.6" opacity="1.0"/><ellipse cx="-21.0" cy="76.0" rx="6.4" ry="10" fill="url(#glow)"/><ellipse cx="-21.0" cy="71.5" rx="3.8" ry="5.5" fill="#ffe3b0" stroke="none"/><rect x="-7.5" y="40.0" width="15.0" height="28.0" rx="7.1" fill="#3b8de0" stroke="#343a44" stroke-width="2.2" opacity="1.0"/><rect x="-5.4" y="65.5" width="10.8" height="5.5" rx="2.2" fill="#2a66a8" stroke="#343a44" stroke-width="1.6" opacity="1.0"/><ellipse cx="0.0" cy="76.0" rx="6.4" ry="10" fill="url(#glow)"/><ellipse cx="0.0" cy="71.5" rx="3.8" ry="5.5" fill="#ffe3b0" stroke="none"/><rect x="13.5" y="40.0" width="15.0" height="28.0" rx="7.1" fill="#3b8de0" stroke="#343a44" stroke-width="2.2" opacity="1.0"/><rect x="15.6" y="65.5" width="10.8" height="5.5" rx="2.2" fill="#2a66a8" stroke="#343a44" stroke-width="1.6" opacity="1.0"/><ellipse cx="21.0" cy="76.0" rx="6.4" ry="10" fill="url(#glow)"/><ellipse cx="21.0" cy="71.5" rx="3.8" ry="5.5" fill="#ffe3b0" stroke="none"/><polygon points="-21.0,43.0 -19.1,48.0 -19.1,66.0 -19.8,73.6 -21.0,75.2 -22.2,73.6 -22.9,66.0 -22.9,48.0" fill="#eef2f6" stroke="#343a44" stroke-width="1.0" stroke-linejoin="round" opacity="1.0"/><polygon points="0.0,43.0 1.9,48.0 1.9,66.0 1.2,73.6 0.0,75.2 -1.2,73.6 -1.9,66.0 -1.9,48.0" fill="#eef2f6" stroke="#343a44" stroke-width="1.0" stroke-linejoin="round" opacity="1.0"/><polygon points="21.0,43.0 22.9,48.0 22.9,66.0 22.2,73.6 21.0,75.2 19.8,73.6 19.1,66.0 19.1,48.0" fill="#eef2f6" stroke="#343a44" stroke-width="1.0" stroke-linejoin="round" opacity="1.0"/><rect x="-21.2" y="27.0" width="7.2" height="10.0" rx="2.5" fill="#3b8de0" stroke="#343a44" stroke-width="1.6" opacity="1.0"/><rect x="-16.2" y="27.9" width="4.7" height="8.2" rx="0.0" fill="#3b8de0" stroke="none" stroke-width="2.0" opacity="1.0"/><rect x="-20.4" y="29.8" width="2.8" height="4.4" rx="1.1" fill="#2a66a8" stroke="#343a44" stroke-width="0.9" opacity="1.0"/><circle cx="-16.6" cy="29.4" r="0.8" fill="#5fd8e8" stroke="none" stroke-width="2.0" opacity="1.0"/><circle cx="-16.6" cy="34.6" r="0.8" fill="#5fd8e8" stroke="none" stroke-width="2.0" opacity="1.0"/><rect x="14.0" y="27.0" width="7.2" height="10.0" rx="2.5" fill="#3b8de0" stroke="#343a44" stroke-width="1.6" opacity="1.0"/><rect x="11.5" y="27.9" width="4.7" height="8.2" rx="0.0" fill="#3b8de0" stroke="none" stroke-width="2.0" opacity="1.0"/><rect x="17.6" y="29.8" width="2.8" height="4.4" rx="1.1" fill="#2a66a8" stroke="#343a44" stroke-width="0.9" opacity="1.0"/><circle cx="16.6" cy="29.4" r="0.8" fill="#5fd8e8" stroke="none" stroke-width="2.0" opacity="1.0"/><circle cx="16.6" cy="34.6" r="0.8" fill="#5fd8e8" stroke="none" stroke-width="2.0" opacity="1.0"/><path d="M 0.0,-101.5 L 6.0,-95.0 Q 7.5,-90.0 6.5,-85.0 L 0.0,-82.0 L -6.5,-85.0 Q -7.5,-90.0 -6.0,-95.0 L 0.0,-101.5 Z" fill="#5fd8e8" stroke="#343a44" stroke-width="1.6" stroke-linejoin="round" opacity="1.0"/><line x1="0.0" y1="-101.0" x2="0.0" y2="-83.0" stroke="#343a44" stroke-width="1.4" stroke-linecap="round" opacity="1.0"/><line x1="-6.2" y1="-91.0" x2="6.2" y2="-91.0" stroke="#343a44" stroke-width="1.3" stroke-linecap="round" opacity="1.0"/></g><g transform="translate(960.0 586.0) scale(0.234)"><polygon points="-21.0,43.0 -37.0,56.0 -38.0,62.0 -34.0,68.0 -21.0,68.0" fill="#3b8de0" stroke="#343a44" stroke-width="1.8" stroke-linejoin="round" opacity="1.0"/><path d="M -34.8,56.8 L -35.8,62.8 L -31.8,68.8" fill="none" stroke="#eef2f6" stroke-width="2" stroke-linecap="round" stroke-linejoin="round" opacity=".95"/><polygon points="21.0,43.0 37.0,56.0 38.0,62.0 34.0,68.0 21.0,68.0" fill="#3b8de0" stroke="#343a44" stroke-width="1.8" stroke-linejoin="round" opacity="1.0"/><path d="M 34.8,56.8 L 35.8,62.8 L 31.8,68.8" fill="none" stroke="#eef2f6" stroke-width="2" stroke-linecap="round" stroke-linejoin="round" opacity=".95"/><path d="M 0.0,-104.0 L 8.0,-95.0 Q 10.0,-90.0 9.0,-84.0 L 8.5,-78.0 L 9.0,-62.0 L 24.0,-34.0 Q 27.0,-18.0 27.0,-4.0 L 19.5,22.0 Q 15.0,30.0 14.0,38.0 Q 16.0,44.0 24.0,47.0 L 26.5,52.0 L 26.5,59.0 Q 25.0,62.0 18.0,62.0 L 0.0,62.0 L -18.0,62.0 Q -25.0,62.0 -26.5,59.0 L -26.5,52.0 L -24.0,47.0 Q -16.0,44.0 -14.0,38.0 Q -15.0,30.0 -19.5,22.0 L -27.0,-4.0 Q -27.0,-18.0 -24.0,-34.0 L -9.0,-62.0 L -8.5,-78.0 L -9.0,-84.0 Q -10.0,-90.0 -8.0,-95.0 L 0.0,-104.0 Z" fill="#3b8de0" stroke="#343a44" stroke-width="2.5" stroke-linejoin="round" opacity="1.0"/><g transform="translate(0.0 -4.0) scale(0.850)"><path d="M 0.0,-104.0 L 8.0,-95.0 Q 10.0,-90.0 9.0,-84.0 L 8.5,-78.0 L 9.0,-62.0 L 24.0,-34.0 Q 27.0,-18.0 27.0,-4.0 L 19.5,22.0 Q 15.0,30.0 14.0,38.0 Q 16.0,44.0 24.0,47.0 L 26.5,52.0 L 26.5,59.0 Q 25.0,62.0 18.0,62.0 L 0.0,62.0 L -18.0,62.0 Q -25.0,62.0 -26.5,59.0 L -26.5,52.0 L -24.0,47.0 Q -16.0,44.0 -14.0,38.0 Q -15.0,30.0 -19.5,22.0 L -27.0,-4.0 Q -27.0,-18.0 -24.0,-34.0 L -9.0,-62.0 L -8.5,-78.0 L -9.0,-84.0 Q -10.0,-90.0 -8.0,-95.0 L 0.0,-104.0 Z" fill="#5aa3ea" stroke="none" stroke-width="2.5" stroke-linejoin="round" opacity="0.5"/></g><polygon points="-2.0,-90.0 2.0,-90.0 3.5,44.0 -3.5,44.0" fill="#eef2f6" stroke="none" stroke-width="2.0" stroke-linejoin="round" opacity="1.0"/><path d="M -6.1,-76.0 L -6.6,-62.0 L -21.6,-34.0 L -24.6,-18.0 L -24.6,-4.0 L -17.1,22.0" fill="none" stroke="#eef2f6" stroke-width="2.2" stroke-linecap="round" stroke-linejoin="round" opacity=".9"/><path d="M 6.1,-76.0 L 6.6,-62.0 L 21.6,-34.0 L 24.6,-18.0 L 24.6,-4.0 L 17.1,22.0" fill="none" stroke="#eef2f6" stroke-width="2.2" stroke-linecap="round" stroke-linejoin="round" opacity=".9"/><path d="M -14.6,41.0 L -20.1,46.5" fill="none" stroke="#eef2f6" stroke-width="2.2" stroke-linecap="round" stroke-linejoin="round" opacity=".9"/><path d="M 14.6,41.0 L 20.1,46.5" fill="none" stroke="#eef2f6" stroke-width="2.2" stroke-linecap="round" stroke-linejoin="round" opacity=".9"/><rect x="-28.5" y="40.0" width="15.0" height="28.0" rx="7.1" fill="#3b8de0" stroke="#343a44" stroke-width="2.2" opacity="1.0"/><rect x="-26.4" y="65.5" width="10.8" height="5.5" rx="2.2" fill="#2a66a8" stroke="#343a44" stroke-width="1.6" opacity="1.0"/><ellipse cx="-21.0" cy="76.0" rx="6.4" ry="10" fill="url(#glow)"/><ellipse cx="-21.0" cy="71.5" rx="3.8" ry="5.5" fill="#ffe3b0" stroke="none"/><rect x="-7.5" y="40.0" width="15.0" height="28.0" rx="7.1" fill="#3b8de0" stroke="#343a44" stroke-width="2.2" opacity="1.0"/><rect x="-5.4" y="65.5" width="10.8" height="5.5" rx="2.2" fill="#2a66a8" stroke="#343a44" stroke-width="1.6" opacity="1.0"/><ellipse cx="0.0" cy="76.0" rx="6.4" ry="10" fill="url(#glow)"/><ellipse cx="0.0" cy="71.5" rx="3.8" ry="5.5" fill="#ffe3b0" stroke="none"/><rect x="13.5" y="40.0" width="15.0" height="28.0" rx="7.1" fill="#3b8de0" stroke="#343a44" stroke-width="2.2" opacity="1.0"/><rect x="15.6" y="65.5" width="10.8" height="5.5" rx="2.2" fill="#2a66a8" stroke="#343a44" stroke-width="1.6" opacity="1.0"/><ellipse cx="21.0" cy="76.0" rx="6.4" ry="10" fill="url(#glow)"/><ellipse cx="21.0" cy="71.5" rx="3.8" ry="5.5" fill="#ffe3b0" stroke="none"/><polygon points="-21.0,43.0 -19.1,48.0 -19.1,66.0 -19.8,75.0 -21.0,77.0 -22.2,75.0 -22.9,66.0 -22.9,48.0" fill="#eef2f6" stroke="#343a44" stroke-width="1.0" stroke-linejoin="round" opacity="1.0"/><polygon points="0.0,43.0 1.9,48.0 1.9,66.0 1.2,75.0 0.0,77.0 -1.2,75.0 -1.9,66.0 -1.9,48.0" fill="#eef2f6" stroke="#343a44" stroke-width="1.0" stroke-linejoin="round" opacity="1.0"/><polygon points="21.0,43.0 22.9,48.0 22.9,66.0 22.2,75.0 21.0,77.0 19.8,75.0 19.1,66.0 19.1,48.0" fill="#eef2f6" stroke="#343a44" stroke-width="1.0" stroke-linejoin="round" opacity="1.0"/><rect x="-21.2" y="27.0" width="7.2" height="10.0" rx="2.5" fill="#3b8de0" stroke="#343a44" stroke-width="1.6" opacity="1.0"/><rect x="-16.2" y="27.9" width="4.7" height="8.2" rx="0.0" fill="#3b8de0" stroke="none" stroke-width="2.0" opacity="1.0"/><rect x="-20.4" y="29.8" width="2.8" height="4.4" rx="1.1" fill="#2a66a8" stroke="#343a44" stroke-width="0.9" opacity="1.0"/><circle cx="-16.6" cy="29.4" r="0.8" fill="#5fd8e8" stroke="none" stroke-width="2.0" opacity="1.0"/><circle cx="-16.6" cy="34.6" r="0.8" fill="#5fd8e8" stroke="none" stroke-width="2.0" opacity="1.0"/><rect x="14.0" y="27.0" width="7.2" height="10.0" rx="2.5" fill="#3b8de0" stroke="#343a44" stroke-width="1.6" opacity="1.0"/><rect x="11.5" y="27.9" width="4.7" height="8.2" rx="0.0" fill="#3b8de0" stroke="none" stroke-width="2.0" opacity="1.0"/><rect x="17.6" y="29.8" width="2.8" height="4.4" rx="1.1" fill="#2a66a8" stroke="#343a44" stroke-width="0.9" opacity="1.0"/><circle cx="16.6" cy="29.4" r="0.8" fill="#5fd8e8" stroke="none" stroke-width="2.0" opacity="1.0"/><circle cx="16.6" cy="34.6" r="0.8" fill="#5fd8e8" stroke="none" stroke-width="2.0" opacity="1.0"/><path d="M 0.0,-101.5 L 6.0,-95.0 Q 7.5,-90.0 6.5,-85.0 L 0.0,-82.0 L -6.5,-85.0 Q -7.5,-90.0 -6.0,-95.0 L 0.0,-101.5 Z" fill="#5fd8e8" stroke="#343a44" stroke-width="1.6" stroke-linejoin="round" opacity="1.0"/><line x1="0.0" y1="-101.0" x2="0.0" y2="-83.0" stroke="#343a44" stroke-width="1.4" stroke-linecap="round" opacity="1.0"/><line x1="-6.2" y1="-91.0" x2="6.2" y2="-91.0" stroke="#343a44" stroke-width="1.3" stroke-linecap="round" opacity="1.0"/></g></svg>